<svg width="91" height="103" viewBox="0 0 91 103" fill="none" xmlns="http://www.w3.org/2000/svg">
<path d="M90.2142 0.236084L81.9955 92.2408L45.0519 102.475L8.21004 92.2552L0 0.236084H90.2142Z" fill="#264DE4"/>
<path d="M45.107 94.6525L74.9592 86.3823L81.9827 7.76001H45.107V94.6525Z" fill="#2965F1"/>
<path d="M45.107 41.8886H18.8212L19.8334 53.1743H45.107V41.8886Z" fill="#EBEBEB"/>
<path d="M45.1071 19.046H45.068H16.7874L17.814 30.3319H45.1071V19.046Z" fill="#EBEBEB"/>
<path d="M20.3383 58.8174L21.9205 76.5377L45.0552 82.9554L45.1072 82.941V71.1991L45.0577 71.2122L32.4796 67.8183L31.6755 58.8174H20.3383Z" fill="#EBEBEB"/>
<path d="M58.9751 53.1743L57.6642 67.8111L45.0679 71.2085V82.9499L68.221 76.5377L71.0448 44.9192L71.3204 41.8887L73.3593 19.046H45.068L45.0679 30.3319H60.9822L59.9545 41.8887H45.0679V53.1743H58.9751Z" fill="white"/>
</svg>
