<svg width="69" height="103" viewBox="0 0 69 103" fill="none" xmlns="http://www.w3.org/2000/svg">
<path d="M17.0521 102.985C21.5746 102.985 25.9119 101.19 29.1098 97.9946C32.3077 94.799 34.1043 90.4649 34.1043 85.9456V68.9057H17.0521C12.5296 68.9057 8.19236 70.701 4.99447 73.8966C1.79658 77.0922 2.29178e-05 81.4263 2.29178e-05 85.9456C2.29178e-05 90.4649 1.79658 94.799 4.99447 97.9946C8.19236 101.19 12.5296 102.985 17.0521 102.985Z" fill="#0ACF83"/>
<path d="M2.29178e-05 51.8657C2.29178e-05 47.3465 1.79658 43.0123 4.99447 39.8167C8.19236 36.6211 12.5296 34.8259 17.0521 34.8259H34.1043V68.9057H17.0521C12.5296 68.9057 8.19236 67.1104 4.99447 63.9148C1.79658 60.7192 2.29178e-05 56.385 2.29178e-05 51.8657Z" fill="#A259FF"/>
<path d="M0 17.786C-1.37945e-06 13.2691 1.79473 8.93691 4.98974 5.74169C8.18475 2.54647 12.5186 0.749645 17.0388 0.746116H34.0909V34.8259L17.0521 34.8259C12.5296 34.8259 8.19234 33.0306 4.99445 29.835C1.79656 26.6394 0 22.3053 0 17.786Z" fill="#F24E1E"/>
<path d="M34.1045 0.746094H51.1566C55.6791 0.746094 60.0164 2.54136 63.2143 5.73696C66.4122 8.93256 68.2088 13.2667 68.2088 17.786C68.2088 22.3052 66.4122 26.6394 63.2143 29.835C60.0164 33.0306 55.6791 34.8259 51.1566 34.8259L34.1043 34.8259L34.1045 0.746094Z" fill="#FF7262"/>
<path d="M68.2088 51.8657C68.2088 56.385 66.4122 60.7192 63.2143 63.9148C60.0164 67.1104 55.6791 68.9056 51.1566 68.9056C46.6341 68.9056 42.2969 67.1104 39.099 63.9148C35.9011 60.7192 34.1045 56.385 34.1045 51.8657C34.1045 47.3465 35.9011 43.0123 39.099 39.8167C42.2969 36.6211 46.6341 34.8259 51.1566 34.8259C55.6791 34.8259 60.0164 36.6211 63.2143 39.8167C66.4122 43.0123 68.2088 47.3465 68.2088 51.8657Z" fill="#1ABCFE"/>
</svg>
